<?xml version="1.0" encoding="utf-8"?>
<!-- Generator: Adobe Illustrator 23.0.0, SVG Export Plug-In . SVG Version: 6.00 Build 0)  -->
<svg version="1.1" xmlns="http://www.w3.org/2000/svg" xmlns:xlink="http://www.w3.org/1999/xlink" x="0px" y="0px"
	 viewBox="0 0 220 220" style="enable-background:new 0 0 220 220;" xml:space="preserve">
<style type="text/css">
	.st0{fill:none;stroke:#000000;stroke-width:2;stroke-miterlimit:10;}
	.st1{fill:none;stroke:#000000;stroke-miterlimit:10;}
</style>
<g id="レイヤー_4">
</g>
<g id="レイヤー_3">
</g>
<g id="レイヤー_2">
	<g>
		<path d="M218,2.28v216H2v-216h164.6H218 M220,0.28h-53.4H0v220h220V0.28L220,0.28z"/>
	</g>
	<polyline class="st0" points="110,30.16 32.48,30.16 0.43,0.71 	"/>
	<line class="st0" x1="85.87" y1="0.28" x2="86.18" y2="49.22"/>
	<path class="st0" d="M56.61,0.28"/>
	<polyline class="st0" points="220,110.28 0.87,110.28 32.98,70.38 1.06,40.93 	"/>
	<line class="st0" x1="110" y1="220.28" x2="110" y2="0.28"/>
	<line class="st0" x1="51.81" y1="0.28" x2="51.81" y2="110.28"/>
	<polyline class="st0" points="165.58,1.15 165.87,110.28 165.87,220.28 	"/>
	<line class="st0" x1="110" y1="55.28" x2="220" y2="55.28"/>
	<line class="st0" x1="44.02" y1="175.24" x2="109.57" y2="175.24"/>
	<path class="st0" d="M78.93,110.28"/>
	<polyline class="st0" points="101.37,110.86 77.38,146.56 77.38,175.24 	"/>
	<polyline class="st0" points="68.02,110.28 44.02,145.98 44.02,174.65 	"/>
	<line class="st0" x1="44.02" y1="145.98" x2="109.57" y2="145.98"/>
	<line class="st0" x1="60.27" y1="175.24" x2="60.27" y2="220.28"/>
	<line class="st0" x1="93.43" y1="175.24" x2="93.43" y2="220.28"/>
	<line class="st0" x1="0.43" y1="109.85" x2="18.19" y2="131.07"/>
	<polyline class="st0" points="1.3,218.98 36.81,166 1.3,166 36.81,131.07 0.43,131.07 	"/>
	<polyline class="st0" points="110,219.41 166.39,165 219.13,110.28 	"/>
	<polyline class="st0" points="219.13,219.41 166.3,165.71 109.57,110.28 	"/>
	<path class="st1" d="M110-2160.5"/>
</g>
</svg>
